<?xml version="1.0" encoding="UTF-8"?>
<!DOCTYPE svg PUBLIC "-//W3C//DTD SVG 1.1//EN" "http://www.w3.org/Graphics/SVG/1.1/DTD/svg11.dtd">
<!-- Creator: CorelDRAW Home & Student X8 -->
<svg xmlns="http://www.w3.org/2000/svg" xml:space="preserve" width="195.182mm" height="142.902mm" version="1.1" style="shape-rendering:geometricPrecision; text-rendering:geometricPrecision; image-rendering:optimizeQuality; fill-rule:evenodd; clip-rule:evenodd"
viewBox="0 0 19518 14290"
 xmlns:xlink="http://www.w3.org/1999/xlink">
 <defs>
  <style type="text/css">
   <![CDATA[
    .fil6 {fill:#75C4B5;fill-rule:nonzero}
    .fil4 {fill:#329C30;fill-rule:nonzero}
    .fil5 {fill:#89BAC4;fill-rule:nonzero}
    .fil8 {fill:#F5DF00;fill-rule:nonzero}
    .fil0 {fill:#FA6C52;fill-rule:nonzero}
    .fil1 {fill:#FAA952;fill-rule:nonzero}
    .fil2 {fill:#FAEB61;fill-rule:nonzero}
    .fil7 {fill:#FEFEFE;fill-rule:nonzero}
    .fil3 {fill:#FF9CB1;fill-rule:nonzero}
   ]]>
  </style>
 </defs>
 <g id="Ebene_x0020_1">
  <metadata id="CorelCorpID_0Corel-Layer"/>
  <polygon class="fil0" points="13009,2678 11481,3575 9949,2686 9944,899 11472,0 13005,889 "/>
  <polygon class="fil1" points="9551,2684 8023,3582 6489,2693 6484,905 8012,7 9546,897 "/>
  <polygon class="fil2" points="11311,5730 9781,6627 8249,5738 8244,3951 9772,3054 11306,3943 "/>
  <polygon class="fil3" points="11703,5715 13246,6589 14765,5677 14744,3891 13203,3014 11682,3926 "/>
  <polygon class="fil4" points="7820,5736 6290,6635 4758,5746 4753,3958 6281,3060 7815,3950 "/>
  <polygon class="fil5" points="6507,8768 8050,9643 9569,8731 9548,6944 8007,6068 6488,6980 "/>
  <polygon class="fil6" points="10029,8752 11570,9628 13091,8716 13070,6928 11529,6053 10008,6966 "/>
  <path class="fil7" d="M9725 3523l-1331 1273 460 -3 932 -910 930 911 387 -18 -584 -552 -19 -603 -336 -7 -6 282 -433 -373zm47 496l-827 834 8 1072 573 -8 -16 -659 474 -5 22 664 584 -8 -23 -1129 -795 -761zm-252 438l179 -2 1 181 -179 1 -1 -180zm208 -2l177 -1 1 180 -177 2 -1 -181zm-205 214l179 -2 1 181 -178 1 -2 -180zm207 -2l176 -1 2 180 -177 2 -1 -181z"/>
  <path class="fil7" d="M8166 990c-270,8 -535,73 -801,117 -151,14 -212,159 -173,347 42,149 4,323 235,298l230 -3 -11 510c-142,17 -181,43 -177,168l816 -11c-40,-39 -127,-77 -235,-114l-6 -502c-34,-241 239,-222 393,-305l-83 -500c-47,-5 -96,-6 -142,-6l-46 1zm450 6c-57,1 -122,6 -183,2l81 479c122,-72 341,-93 322,-287l196 -26 22 -88 -230 36c-27,-102 -109,-116 -208,-116zm-1121 194l83 41 -174 357 -84 -41 175 -357zm152 6l84 42 -175 357 -83 -44 174 -355zm149 10l82 41 -174 359 -82 -44 174 -356zm383 425c-120,113 -78,157 -80,328l117 9c80,-22 19,-99 -14,-137 -43,-51 -33,-154 -23,-200zm126 891l-833 11 10 275 830 -3 -7 -283z"/>
  <path class="fil7" d="M11951 752c-266,13 -472,242 -458,510 3,84 27,140 67,211l-951 845c-76,77 -77,201 -1,280l74 76c76,77 199,78 277,1l823 -993c74,27 141,45 215,41 100,-4 191,-39 266,-96l-298 -428c-48,-68 -51,-124 15,-168l281 -184c-87,-66 -194,-101 -310,-95zm444 352l-278 183 157 236c131,-190 134,-295 121,-419zm-569 91c13,-2 25,3 33,13 13,16 10,41 -6,54l-157 124c-17,13 -40,9 -54,-8 -13,-16 -10,-40 8,-53l157 -122c6,-5 13,-8 19,-8zm68 84c13,-2 24,4 33,14 13,17 10,40 -6,53l-157 126c-18,13 -41,8 -54,-8 -13,-17 -10,-42 8,-53l155 -124c6,-5 14,-8 21,-8zm73 84c11,-1 22,4 31,14 13,17 10,42 -6,55l-157 124c-16,13 -41,10 -54,-7 -11,-18 -10,-41 6,-54l158 -124c5,-5 13,-8 22,-8zm-1119 930c36,0 72,15 99,42 56,56 55,149 0,204 -56,57 -147,54 -202,-2 -56,-56 -55,-147 0,-202 25,-25 56,-38 89,-42l14 0z"/>
  <path class="fil7" d="M12375 5470c38,137 181,210 183,195l564 -567c10,-5 -6,-79 -52,-87 39,-37 80,-75 119,-110 50,-55 51,-188 -38,-273l-348 -339c-34,-33 -68,-94 -27,-137l187 -217c34,-33 44,11 61,31 -44,62 -65,141 -61,241l689 834 3 -1c79,83 254,59 403,-60 123,-98 189,-236 169,-335 -7,-35 -30,-68 -61,-93l-785 -756c-112,-17 -232,52 -302,110l-74 -74c-32,-14 -59,-6 -81,29l-220 262c-29,35 -47,50 -41,98 11,82 62,120 100,164l338 334c10,38 17,75 6,103l-94 118c-48,-71 -94,-72 -111,-52l-527 582zm1309 -563c1,-71 49,-159 132,-226 10,-9 20,-15 31,-22 4,-3 8,-5 13,-8 5,-4 10,-5 15,-9 5,-3 10,-5 15,-7 3,-3 8,-5 11,-6 2,-2 3,-2 5,-4 11,-3 21,-6 33,-10 9,-3 19,-7 29,-8 2,0 5,-2 7,-4 14,-1 26,-3 39,-5l3 0c7,0 12,2 17,2l14 -1c2,0 4,2 5,2 3,2 7,2 10,2 2,1 3,1 5,1 2,0 3,2 7,4 4,0 8,1 11,3 3,1 7,3 10,3 1,2 1,2 3,3 3,0 5,2 8,4 0,1 2,3 2,3 8,6 15,13 21,21 12,13 19,30 22,46 14,77 -36,180 -131,256 -117,94 -256,110 -312,38 -7,-10 -13,-22 -17,-32l-1 0c-5,-15 -7,-30 -7,-46zm21 -9c0,15 2,30 7,42 3,10 8,18 15,26 1,2 3,3 3,5 53,61 176,47 280,-37 84,-68 131,-163 118,-231 -4,-16 -10,-30 -20,-43 -5,-6 -12,-13 -19,-18 -3,-1 -3,-1 -6,-3 -3,-2 -7,-3 -8,-5 -4,-2 -9,-5 -12,-6 -1,0 -5,-2 -8,-2l-2 -2c-5,0 -8,-1 -13,-1 -1,0 -3,-2 -5,-2 -5,0 -8,-1 -13,-1l-1 0c-5,0 -10,-2 -15,-2l-2 2c-10,0 -21,1 -33,3l-1 0c-12,2 -23,5 -33,9l-3 0c-23,8 -48,20 -70,33 -2,2 -2,2 -4,4 -11,6 -24,15 -35,25 -75,60 -119,140 -120,204zm145 -39l2 0c-2,-3 -2,-6 0,-10l0 -8c1,0 1,0 1,-2 0,-1 0,-5 2,-6 3,-12 10,-24 19,-34 5,-6 13,-13 20,-20 5,-3 10,-6 15,-10 5,-3 9,-5 14,-6 5,-2 8,-4 13,-5 4,0 7,-2 10,-2 2,-2 3,-2 7,-2l13 0c1,0 0,0 0,0 13,0 24,5 31,15 5,5 7,10 7,15 5,24 -11,59 -42,84 -39,32 -85,36 -103,13 -4,-4 -4,-7 -5,-10 -2,-3 -4,-8 -4,-12zm13 -3c0,3 0,5 2,6 0,4 2,5 3,9 17,19 55,16 87,-11 26,-22 39,-50 36,-70 -2,-5 -4,-8 -5,-13 -7,-8 -18,-13 -32,-13l-8 0c-3,0 -6,2 -8,2 -2,2 -3,2 -5,2 -1,1 -5,1 -8,3 -5,2 -8,5 -11,7 -2,0 -2,1 -4,1 -5,2 -8,5 -11,9 -7,3 -11,10 -16,15 -4,3 -5,8 -8,13 -2,2 -4,2 -4,3 -1,2 0,2 0,2 -3,5 -4,8 -6,12 -2,8 -3,16 -2,23z"/>
  <path class="fil7" d="M11804 6843l-429 116 -695 578 61 281 602 -558 -443 1004 216 137 548 -655 -362 1030 172 93 1145 -951 1 -295 -863 704 452 -1114 -237 -144 -565 689 397 -915zm199 361c28,-2 54,16 59,43 7,30 -14,61 -47,68 -33,7 -62,-13 -69,-43 -7,-26 9,-53 34,-64 5,-2 8,-2 11,-4l12 0zm-925 943c28,-1 52,19 57,46 7,29 -12,59 -45,66 -33,9 -64,-11 -71,-42 -6,-30 15,-60 47,-69 4,0 7,-1 12,-1zm421 465c28,-2 51,15 56,41 7,32 -13,61 -46,70 -32,7 -64,-13 -70,-43 -5,-28 9,-54 35,-64 4,-2 8,-2 13,-2 4,-2 8,-2 12,-2z"/>
  <path class="fil7" d="M7154 3993l-545 1418 -264 -447c-157,-80 -179,-80 -302,31 81,121 15,263 -104,365l-305 396c-171,109 -386,-4 -251,-263l243 -363c73,-138 171,-197 297,-173 90,-181 178,-123 303,-161l-161 -153 1089 -650zm-408 480l-444 376 105 87 339 -463z"/>
  <path class="fil7" d="M8876 6807l-206 142 5 127 -541 644 89 74 532 -650 147 -29 90 -226 -116 -82zm-893 864c24,106 -45,199 -134,276l-506 441c-305,169 34,697 333,284l366 -551c47,-70 113,-156 249,-174l-308 -276z"/>
  <path class="fil8" d="M29 12492l0 -2134 347 0 774 1780 760 -1780 333 0 0 2134 -244 0 0 -1751 -750 1751 -215 0 -762 -1751 0 1751 -243 0zm4052 -2134l0 224 -1106 0 0 716 1054 0 0 223 -1054 0 0 747 1128 0 0 224 -1402 0 0 -2134 1380 0zm1845 0l0 224 -664 0 0 1910 -273 0 0 -1910 -664 0 0 -224 1601 0zm96 2134l-284 0 896 -2134 303 0 900 2134 -303 0 -273 -672 -698 0 76 -224 531 0 -394 -967 -754 1863zm2345 -2134l0 1910 1104 0 0 224 -1377 0 0 -2134 273 0zm1659 0l0 1910 1104 0 0 224 -1377 0 0 -2134 273 0zm1132 0l264 0 298 1857 596 -1857 272 0 639 1857 335 -1857 253 0 -398 2134 -371 0 -597 -1788 -576 1788 -368 0 -347 -2134zm4318 0l0 224 -1106 0 0 716 1055 0 0 223 -1055 0 0 747 1129 0 0 224 -1402 0 0 -2134 1379 0zm351 2134l0 -2134 901 0c401,0 601,171 601,512 0,277 -196,483 -588,616l724 1006 -360 0 -671 -960 0 -180c403,-65 605,-222 605,-471 0,-196 -113,-295 -337,-295l-601 0 0 1906 -274 0zm2157 -2134l0 2134 -273 0 0 -2134 273 0zm1484 0l-950 1007 971 1127 -379 0 -861 -1027 0 -167 873 -940 346 0zm-19468 3108c0,-137 49,-254 149,-352 98,-98 217,-148 355,-148 137,0 255,50 352,149 99,99 148,218 148,357 0,139 -50,257 -148,355 -99,97 -219,146 -359,146 -124,0 -236,-43 -334,-130 -109,-96 -163,-222 -163,-377zm146 2c0,107 36,195 107,264 71,70 153,104 246,104 101,0 186,-35 255,-106 69,-71 104,-158 104,-260 0,-103 -35,-190 -103,-260 -68,-71 -152,-106 -252,-106 -100,0 -185,35 -253,106 -69,70 -104,155 -104,258zm1133 -574l0 520c56,-58 119,-88 190,-88 82,0 150,31 204,93 55,61 82,137 82,229 0,94 -28,172 -82,234 -55,61 -123,91 -206,91 -71,0 -133,-27 -188,-81l0 64 -140 0 0 -1062 140 0zm333 760c0,-59 -16,-107 -48,-144 -32,-37 -72,-56 -120,-56 -51,0 -93,18 -126,55 -31,36 -47,82 -47,140 0,60 16,108 47,143 32,37 73,55 124,55 49,0 89,-18 121,-55 32,-37 49,-83 49,-138zm410 -311l0 946 -140 0 0 -946 140 0zm-161 -254c0,-25 9,-47 27,-65 17,-18 39,-27 64,-27 25,0 47,9 65,27 17,18 26,39 26,65 0,26 -9,47 -26,65 -18,19 -39,28 -65,28 -25,0 -47,-9 -64,-28 -18,-18 -27,-39 -27,-65zm870 594l-435 0c4,50 20,90 49,120 29,29 65,44 110,44 35,0 64,-8 86,-25 23,-17 48,-48 77,-93l118 66c-18,32 -38,59 -58,81 -20,22 -42,41 -65,55 -24,15 -49,26 -75,32 -27,7 -57,10 -88,10 -91,0 -163,-29 -218,-88 -55,-59 -82,-137 -82,-235 0,-97 27,-175 80,-235 53,-59 124,-89 212,-89 90,0 160,29 212,86 51,57 77,136 77,237l0 34zm-144 -116c-20,-76 -67,-113 -141,-113 -17,0 -33,2 -48,7 -15,6 -29,13 -41,23 -12,10 -23,22 -32,36 -8,14 -15,29 -19,47l281 0zm418 -673l0 647 197 -198 188 0 -263 257 282 356 -181 0 -201 -259 -22 23 0 236 -140 0 0 -1062 140 0zm650 581l0 481 -140 0 0 -481 -60 0 0 -132 60 0 0 -224 140 0 0 224 109 0 0 132 -109 0zm550 -28l-116 63c-18,-38 -41,-57 -68,-57 -12,0 -23,5 -33,13 -9,9 -13,20 -13,33 0,24 27,47 81,70 74,32 124,62 149,89 26,28 39,64 39,110 0,60 -22,109 -64,149 -42,37 -93,56 -152,56 -102,0 -174,-50 -216,-150l119 -56c17,30 30,48 38,56 17,16 38,24 61,24 48,0 71,-22 71,-65 0,-26 -18,-49 -55,-71 -14,-7 -28,-14 -42,-21 -14,-6 -28,-13 -43,-20 -40,-21 -69,-41 -85,-61 -22,-25 -32,-58 -32,-99 0,-53 18,-97 54,-131 37,-35 81,-53 134,-53 78,0 135,41 173,121zm696 236l-434 0c4,50 20,90 49,120 28,29 64,44 109,44 35,0 64,-8 87,-25 22,-17 48,-48 76,-93l119 66c-19,32 -38,59 -58,81 -21,22 -43,41 -66,55 -23,15 -48,26 -75,32 -27,7 -56,10 -87,10 -91,0 -164,-29 -218,-88 -55,-59 -82,-137 -82,-235 0,-97 26,-175 79,-235 54,-59 125,-89 213,-89 89,0 160,29 212,86 51,57 76,136 76,237l0 34zm-144 -116c-19,-76 -66,-113 -141,-113 -17,0 -33,2 -48,7 -15,6 -28,13 -41,23 -12,10 -22,22 -31,36 -9,14 -15,29 -20,47l281 0zm279 -224l140 0 0 55c25,-28 48,-46 68,-56 20,-11 44,-16 72,-16 37,0 76,12 116,37l-64 129c-27,-19 -53,-29 -78,-29 -76,0 -114,59 -114,175l0 318 -140 0 0 -613zm590 0l157 344 156 -344 157 0 -314 655 -312 -655 156 0zm694 0l0 613 -140 0 0 -613 140 0zm-161 -254c0,-25 9,-47 27,-65 17,-18 39,-27 64,-27 25,0 47,9 64,27 18,18 27,39 27,65 0,26 -9,47 -27,65 -17,19 -39,28 -64,28 -25,0 -47,-9 -64,-28 -18,-18 -27,-39 -27,-65zm789 281l0 188c-32,-40 -60,-67 -86,-82 -25,-15 -54,-22 -87,-22 -53,0 -97,18 -131,56 -35,37 -53,84 -53,140 0,58 17,105 50,141 34,37 78,56 130,56 34,0 64,-7 89,-22 25,-14 54,-42 88,-83l0 187c-57,29 -114,44 -170,44 -94,0 -172,-30 -235,-91 -64,-62 -95,-138 -95,-230 0,-92 32,-169 96,-231 64,-63 142,-95 235,-95 60,0 116,15 169,44zm684 313l-435 0c4,50 21,90 49,120 29,29 65,44 110,44 35,0 64,-8 87,-25 22,-17 48,-48 76,-93l118 66c-18,32 -37,59 -57,81 -21,22 -43,41 -66,55 -23,15 -48,26 -75,32 -27,7 -56,10 -88,10 -90,0 -163,-29 -217,-88 -55,-59 -83,-137 -83,-235 0,-97 27,-175 80,-235 54,-59 124,-89 213,-89 89,0 159,29 211,86 52,57 77,136 77,237l0 34zm-144 -116c-19,-76 -66,-113 -141,-113 -17,0 -33,2 -48,7 -15,6 -29,13 -41,23 -12,10 -23,22 -31,36 -9,14 -15,29 -20,47l281 0zm830 -224l0 352c0,101 40,152 119,152 79,0 119,-51 119,-152l0 -352 140 0 0 355c0,49 -6,91 -18,127 -12,32 -32,61 -61,86 -47,42 -107,62 -180,62 -73,0 -133,-20 -180,-62 -29,-25 -49,-54 -61,-86 -12,-28 -18,-71 -18,-127l0 -355 140 0zm534 0l140 0 0 57c49,-49 104,-74 166,-74 70,0 125,23 165,67 34,39 51,101 51,187l0 376 -141 0 0 -342c0,-61 -8,-103 -25,-126 -16,-23 -46,-35 -88,-35 -47,0 -80,16 -99,47 -19,30 -29,84 -29,160l0 296 -140 0 0 -613zm1124 -449l141 0 0 1062 -141 0 0 -64c-55,54 -117,81 -187,81 -83,0 -152,-30 -206,-91 -55,-63 -82,-141 -82,-234 0,-92 27,-168 82,-229 53,-62 121,-93 203,-93 71,0 134,30 190,88l0 -520zm-332 754c0,58 16,106 47,143 32,37 72,56 121,56 51,0 93,-18 125,-54 32,-37 48,-85 48,-142 0,-57 -16,-105 -48,-142 -32,-37 -73,-55 -124,-55 -48,0 -88,18 -121,55 -32,37 -48,84 -48,139zm1069 308l0 -972 201 0c97,0 173,10 229,30 60,18 115,51 164,96 99,91 148,212 148,360 0,150 -51,270 -155,362 -51,47 -106,79 -162,97 -54,18 -129,27 -226,27l-199 0zm145 -138l65 0c65,0 119,-7 162,-21 44,-14 83,-38 117,-69 72,-66 107,-152 107,-258 0,-106 -35,-193 -105,-259 -64,-59 -157,-88 -281,-88l-65 0 0 695zm872 -475l0 613 -139 0 0 -613 139 0zm-161 -254c0,-25 9,-47 27,-65 18,-18 39,-27 64,-27 25,0 47,9 65,27 18,18 27,39 27,65 0,26 -9,47 -27,65 -18,19 -39,28 -64,28 -26,0 -47,-9 -65,-28 -18,-18 -27,-39 -27,-65zm870 594l-434 0c3,50 20,90 48,120 29,29 65,44 110,44 35,0 64,-8 87,-25 22,-17 48,-48 76,-93l118 66c-18,32 -37,59 -57,81 -21,22 -43,41 -66,55 -23,15 -48,26 -75,32 -27,7 -56,10 -88,10 -90,0 -163,-29 -217,-88 -55,-59 -83,-137 -83,-235 0,-97 27,-175 80,-235 53,-59 124,-89 213,-89 89,0 159,29 211,86 52,57 77,136 77,237l0 34zm-144 -116c-19,-76 -66,-113 -141,-113 -17,0 -33,2 -48,7 -15,6 -29,13 -41,23 -12,10 -23,22 -31,36 -9,14 -15,29 -20,47l281 0zm279 -224l140 0 0 57c49,-49 104,-74 165,-74 71,0 126,23 165,67 34,39 51,101 51,187l0 376 -140 0 0 -342c0,-61 -8,-103 -25,-126 -16,-23 -46,-35 -89,-35 -46,0 -79,16 -98,47 -20,30 -29,84 -29,160l0 296 -140 0 0 -613zm1026 104l-116 63c-19,-38 -41,-57 -68,-57 -13,0 -24,5 -33,13 -9,9 -14,20 -14,33 0,24 27,47 81,70 74,32 124,62 150,89 26,28 39,64 39,110 0,60 -22,109 -65,149 -42,37 -92,56 -152,56 -101,0 -173,-50 -215,-150l119 -56c17,30 29,48 38,56 17,16 37,24 61,24 47,0 71,-22 71,-65 0,-26 -19,-49 -55,-71 -14,-7 -28,-14 -42,-21 -14,-6 -29,-13 -43,-20 -41,-21 -69,-41 -86,-61 -21,-25 -32,-58 -32,-99 0,-53 18,-97 54,-131 37,-35 82,-53 135,-53 77,0 135,41 173,121zm299 28l0 481 -139 0 0 -481 -60 0 0 -132 60 0 0 -224 139 0 0 224 109 0 0 132 -109 0zm342 -581l0 1062 -140 0 0 -1062 140 0zm709 789l-435 0c4,50 20,90 49,120 28,29 65,44 110,44 35,0 64,-8 86,-25 23,-17 48,-48 77,-93l118 66c-18,32 -38,59 -58,81 -20,22 -42,41 -65,55 -24,15 -49,26 -75,32 -27,7 -57,10 -88,10 -91,0 -163,-29 -218,-88 -55,-59 -82,-137 -82,-235 0,-97 27,-175 80,-235 53,-59 124,-89 212,-89 90,0 160,29 212,86 51,57 77,136 77,237l0 34zm-144 -116c-20,-76 -67,-113 -141,-113 -17,0 -34,2 -48,7 -15,6 -29,13 -41,23 -12,10 -23,22 -32,36 -8,14 -15,29 -19,47l281 0zm416 -224l0 613 -140 0 0 -613 140 0zm-161 -254c0,-25 9,-47 27,-65 17,-18 39,-27 64,-27 25,0 47,9 65,27 17,18 26,39 26,65 0,26 -9,47 -26,65 -18,19 -39,28 -65,28 -25,0 -47,-9 -64,-28 -18,-18 -27,-39 -27,-65zm670 358l-116 63c-18,-38 -41,-57 -68,-57 -13,0 -24,5 -33,13 -9,9 -13,20 -13,33 0,24 27,47 80,70 74,32 125,62 150,89 26,28 39,64 39,110 0,60 -22,109 -65,149 -42,37 -92,56 -151,56 -102,0 -174,-50 -216,-150l119 -56c17,30 29,48 38,56 17,16 37,24 61,24 47,0 71,-22 71,-65 0,-26 -18,-49 -55,-71 -14,-7 -28,-14 -42,-21 -14,-6 -28,-13 -43,-20 -41,-21 -69,-41 -86,-61 -21,-25 -32,-58 -32,-99 0,-53 19,-97 55,-131 36,-35 81,-53 134,-53 78,0 135,41 173,121zm300 28l0 481 -140 0 0 -481 -60 0 0 -132 60 0 0 -224 140 0 0 224 109 0 0 132 -109 0zm323 -132l0 352c0,101 40,152 119,152 79,0 119,-51 119,-152l0 -352 140 0 0 355c0,49 -6,91 -18,127 -12,32 -32,61 -60,86 -48,42 -108,62 -181,62 -73,0 -132,-20 -180,-62 -29,-25 -49,-54 -61,-86 -12,-28 -17,-71 -17,-127l0 -355 139 0zm534 0l141 0 0 57c48,-49 104,-74 165,-74 70,0 126,23 165,67 34,39 51,101 51,187l0 376 -141 0 0 -342c0,-61 -8,-103 -25,-126 -16,-23 -45,-35 -88,-35 -47,0 -79,16 -99,47 -19,30 -28,84 -28,160l0 296 -141 0 0 -613zm1264 598c0,29 -1,55 -3,77 -2,22 -5,41 -8,58 -10,46 -29,86 -58,119 -55,63 -130,95 -226,95 -81,0 -147,-22 -200,-65 -53,-46 -85,-109 -93,-189l141 0c5,30 14,54 26,70 29,38 72,57 127,57 103,0 154,-63 154,-190l0 -86c-56,57 -120,86 -192,86 -83,0 -150,-30 -203,-90 -53,-61 -80,-138 -80,-230 0,-89 25,-165 74,-227 53,-66 124,-100 211,-100 76,0 139,29 190,86l0 -69 140 0 0 598zm-135 -290c0,-60 -16,-107 -47,-143 -32,-36 -73,-55 -122,-55 -53,0 -95,20 -126,60 -28,36 -42,82 -42,138 0,56 14,102 42,138 30,39 72,58 126,58 53,0 95,-20 126,-59 29,-36 43,-81 43,-137zm847 32l-435 0c4,50 21,90 49,120 29,29 65,44 110,44 35,0 64,-8 87,-25 22,-17 48,-48 76,-93l118 66c-18,32 -37,59 -58,81 -20,22 -42,41 -65,55 -23,15 -48,26 -75,32 -27,7 -56,10 -88,10 -90,0 -163,-29 -218,-88 -54,-59 -82,-137 -82,-235 0,-97 27,-175 80,-235 53,-59 124,-89 213,-89 89,0 159,29 211,86 51,57 77,136 77,237l0 34zm-144 -116c-19,-76 -66,-113 -141,-113 -17,0 -33,2 -48,7 -15,6 -29,13 -41,23 -12,10 -23,22 -31,36 -9,14 -16,29 -20,47l281 0zm276 -224l141 0 0 57c49,-49 104,-74 165,-74 71,0 126,23 165,67 34,39 51,101 51,187l0 376 -140 0 0 -342c0,-61 -9,-103 -25,-126 -16,-23 -46,-35 -89,-35 -46,0 -79,16 -99,47 -19,30 -28,84 -28,160l0 296 -141 0 0 -613z"/>
 </g>
</svg>
